<?xml version="1.0" standalone="no"?>
<!DOCTYPE svg PUBLIC "-//W3C//DTD SVG 1.1//EN" "http://www.w3.org/Graphics/SVG/1.1/DTD/svg11.dtd" >
<svg>
<metadata>
Created by FontForge 20090914 at Tue Jan 15 09:44:39 2013
 By www-data
Copyright (c) 2012 by cbabb. All rights reserved.
</metadata>
<defs>
<font id="COUTURE-Bold" horiz-adv-x="741" >
  <font-face 
    font-family="COUTURE"
    font-weight="700"
    font-stretch="normal"
    units-per-em="1000"
    panose-1="2 11 8 4 2 2 2 2 2 4"
    ascent="714"
    descent="-286"
    x-height="714"
    cap-height="714"
    bbox="-9 -102.001 1307 816"
    underline-thickness="50"
    underline-position="-50"
    unicode-range="U+0020-U+2122"
  />
<missing-glyph horiz-adv-x="278" 
 />
    <glyph glyph-name=".notdef" horiz-adv-x="278" 
 />
    <glyph glyph-name="space" unicode=" " horiz-adv-x="303" 
 />
    <glyph glyph-name="numbersign" unicode="#" horiz-adv-x="1013" 
d="M179 522v-523h-124v717h124h56l319 -446v446h133v-717h-133zM963 594c0 -16.667 -3.16699 -32.334 -9.5 -47.001s-14.833 -27.334 -25.5 -38.001s-23.334 -19 -38.001 -25s-30 -9 -46 -9c-16.667 0 -32.334 3 -47.001 9s-27.334 14.333 -38.001 25
s-19.167 23.334 -25.5 38.001s-9.5 30.334 -9.5 47.001s3.16699 32.334 9.5 47.001s14.833 27.334 25.5 38.001s23.334 19.167 38.001 25.5s30.334 9.5 47.001 9.5c16 0 31.333 -3.16699 46 -9.5s27.334 -14.833 38.001 -25.5s19.167 -23.334 25.5 -38.001
s9.5 -30.334 9.5 -47.001zM844 665c-19.333 0 -36.001 -6.99805 -50.001 -20.998s-21 -30.667 -21 -50c0 -9.33301 1.83301 -18.333 5.5 -27s8.83398 -16.334 15.501 -23.001s14.167 -12 22.5 -16s17.5 -6 27.5 -6c19.333 0 35.666 7.16699 48.999 21.5s20 31.166 20 50.499
s-6.66699 36 -20 50s-29.666 21 -48.999 21z" />
    <glyph glyph-name="dollar" unicode="$" horiz-adv-x="1377" 
d="M1175 512c-13.333 22.667 -29.3311 43.499 -47.998 62.499s-39.5 35.333 -62.5 49s-48 24.334 -75 32.001s-55.167 11.5 -84.5 11.5c-16 0 -32 -1.33301 -48 -4s-32 -6.33398 -48 -11.001c34.667 -40.667 61.667 -85.834 81 -135.501s29 -102.834 29 -159.501
s-9.66699 -110 -29 -160s-46.333 -95 -81 -135c16 -4.66699 32 -8.33398 48 -11.001s32 -4 48 -4c56.667 0 108.5 13.667 155.5 41s83.5 64 109.5 110l38 -20c10 -5.33301 19.5 -10.166 28.5 -14.499s18.5 -9.16602 28.5 -14.499l38 -20
c-20 -34.667 -43.833 -66.167 -71.5 -94.5s-58.667 -52.666 -93 -72.999s-71.166 -36 -110.499 -47s-80.333 -16.5 -123 -16.5c-40.667 0 -79.667 5.16699 -117 15.5s-72.666 24.833 -105.999 43.5c-32.667 -18.667 -67.667 -33.167 -105 -43.5s-76.333 -15.5 -117 -15.5
c-42.667 0 -83.667 5.5 -123 16.5s-76.166 26.667 -110.499 47s-65.333 44.666 -93 72.999s-51.5 59.833 -71.5 94.5l37 20c10 5.33301 19.5 10.166 28.5 14.499s18.5 9.16602 28.5 14.499l38 20c28 -46 65.167 -82.667 111.5 -110s97.833 -41 154.5 -41
c16.667 0 32.834 1.33301 48.501 4s31.167 6.33398 46.5 11.001c-33.333 40 -59.5 85 -78.5 135s-28.5 103.333 -28.5 160s9.5 109.834 28.5 159.501s45.167 94.834 78.5 135.501c-15.333 4.66699 -30.833 8.33398 -46.5 11.001s-31.834 4 -48.501 4
c-28.667 0 -56.334 -3.83301 -83.001 -11.5s-51.5 -18.334 -74.5 -32.001s-43.833 -30 -62.5 -49s-34.667 -39.833 -48 -62.5c-15.333 6.66699 -27.833 12.334 -37.5 17.001l-28 14l-28.5 15.5l-38 21.5c20 34.667 44 66.5 72 95.5s59.167 54 93.5 75
s71.166 37.167 110.499 48.5s80.666 17 123.999 17c40.667 0 79.667 -5.16699 117 -15.5s72.333 -24.833 105 -43.5c33.333 18.667 68.666 33.167 105.999 43.5s76.333 15.5 117 15.5c42.667 0 84 -5.66699 124 -17s77.333 -27.5 112 -48.5s66.167 -46 94.5 -75
s52.166 -60.833 71.499 -95.5l-38.5 -21.5l-29 -15.5l-28 -14zM682.002 570.999c-26.667 -28 -47.334 -60.167 -62.001 -96.5s-22 -75.5 -22 -117.5s7.33301 -81.333 22 -118s35.334 -69 62.001 -97c26.667 28 48 60.333 64 97s24 76 24 118s-8 81.167 -24 117.5
s-37.333 68.5 -64 96.5z" />
    <glyph glyph-name="zero" unicode="0" horiz-adv-x="547" 
d="M32 346c0 124.667 20.167 216.5 60.5 275.5s102.166 88.5 185.499 88.5s145.166 -29.5 185.499 -88.5s60.5 -150.833 60.5 -275.5s-20.167 -216.667 -60.5 -276s-102.166 -89 -185.499 -89s-145.166 29.667 -185.499 89s-60.5 151.333 -60.5 276zM176 346
c0 -46 1.5 -85 4.5 -117s8.5 -58 16.5 -78s18.5 -34.667 31.5 -44s29.5 -14 49.5 -14s36.5 4.66699 49.5 14s23.5 24 31.5 44s13.5 46 16.5 78s4.5 71 4.5 117s-1.5 85 -4.5 117s-8.5 58 -16.5 78s-18.5 34.5 -31.5 43.5s-29.5 13.5 -49.5 13.5s-36.5 -4.5 -49.5 -13.5
s-23.5 -23.5 -31.5 -43.5s-13.5 -46 -16.5 -78s-4.5 -71 -4.5 -117z" />
    <glyph glyph-name="one" unicode="1" horiz-adv-x="325" 
d="M277 707v-707h-140l1 565l-108 -1l-1 91z" />
    <glyph glyph-name="two" unicode="2" horiz-adv-x="539" 
d="M28 138c6 9.33301 15.001 19.999 27.001 31.999s25.5 24.5 40.5 37.5s30.833 25.833 47.5 38.5l48 36l82 60.5c22.667 17 41.167 33.167 55.5 48.5s24.833 30.833 31.5 46.5s10 33.5 10 53.5c0 12 -2 24 -6 36s-10 22.833 -18 32.5s-18.167 17.5 -30.5 23.5
s-26.833 9 -43.5 9c-24.667 0 -43.834 -4.5 -57.501 -13.5s-23.667 -20.167 -30 -33.5s-10.333 -27.833 -12 -43.5s-2.5 -29.834 -2.5 -42.501h-136c0 38.667 4.33301 71.667 13 99s19.834 50.333 33.501 69s29 33.5 46 44.5s34.167 19.333 51.5 25
s33.666 9.33398 48.999 11.001s28.333 2.5 39 2.5c34 0 65.833 -5 95.5 -15s55.5 -24.5 77.5 -43.5s39.333 -42.333 52 -70s19 -59.5 19 -95.5c0 -30.667 -4.5 -57.667 -13.5 -81s-20.5 -44.166 -34.5 -62.499s-29.833 -34.5 -47.5 -48.5s-35.167 -27 -52.5 -39l-62 -44
c-18 -12.667 -33.5 -24 -46.5 -34s-23.667 -19.333 -32 -28s-14.5 -17 -18.5 -25h308v-124h-483v138z" />
    <glyph glyph-name="three" unicode="3" horiz-adv-x="548" 
d="M213 411l21.9961 0.000976562c10.667 0 22.834 0.666992 36.501 2s26.667 5.16602 39 11.499s22.666 15.833 30.999 28.5s12.5 30.667 12.5 54c0 6.66699 -1 15.167 -3 25.5s-6.16699 20.333 -12.5 30s-15.333 18 -27 25s-27.167 10.5 -46.5 10.5
c-24 0 -42.5 -4.83301 -55.5 -14.5s-22.5 -21 -28.5 -34s-9.5 -26 -10.5 -39s-1.5 -22.5 -1.5 -28.5h-130c0 33.333 4.66699 64 14 92s23.833 52 43.5 72s44.167 35.667 73.5 47s64 17 104 17c24 0 48.833 -3.33301 74.5 -10s49.334 -17.667 71.001 -33
s39.5 -35.666 53.5 -60.999s21 -56.666 21 -93.999c0 -18 -2.5 -34.333 -7.5 -49s-11.667 -27.667 -20 -39s-17.5 -20.833 -27.5 -28.5s-20 -13.834 -30 -18.501v-2c6 -2 15 -6 27 -12s24 -15.333 36 -28s22.333 -29.167 31 -49.5s13 -45.5 13 -75.5
c0 -33.333 -5.83301 -64 -17.5 -92s-28.167 -52.167 -49.5 -72.5s-46.833 -36.166 -76.5 -47.499s-62.5 -17 -98.5 -17c-11.333 0 -25.166 0.666992 -41.499 2s-33.666 4.66602 -51.999 9.99902s-36.666 13.166 -54.999 23.499s-34.833 24.166 -49.5 41.499
s-26.5 39 -35.5 65s-13.5 57.667 -13.5 95h137l-1 -1c0 -9.33301 1 -21.166 3 -35.499s6.5 -28 13.5 -41s17.5 -24.167 31.5 -33.5s32.667 -14 56 -14c28 0 52.5 9.66699 73.5 29s31.5 48.666 31.5 87.999c0 24 -5.16699 42.833 -15.5 56.5s-23.5 23.834 -39.5 30.501
s-33.333 10.667 -52 12s-36 2 -52 2v100z" />
    <glyph glyph-name="four" unicode="4" horiz-adv-x="557" 
d="M147 258l160 -1v453h140v-444h79v-109h-79v-157h-140v157h-280v121l19 325h118z" />
    <glyph glyph-name="five" unicode="5" horiz-adv-x="545" 
d="M174 426c13.333 9.33301 29.1689 18.1689 47.502 26.502s44.833 12.5 79.5 12.5c24 0 48.667 -4.33301 74 -13s48.5 -22.167 69.5 -40.5s38.167 -42 51.5 -71s20 -63.833 20 -104.5c0 -24 -3.66699 -50.833 -11 -80.5s-20.5 -57.5 -39.5 -83.5s-45.333 -47.667 -79 -65
s-76.5 -26 -128.5 -26c-28 0 -55.333 4.16699 -82 12.5s-50.834 21.166 -72.501 38.499s-39.334 39 -53.001 65s-21.5 57 -23.5 93h140c3.33301 -29.333 12.833 -52.833 28.5 -70.5s39.167 -26.5 70.5 -26.5c34 0 60.167 12.667 78.5 38s27.5 57 27.5 95
c0 16 -2 31.5 -6 46.5s-10.167 28.5 -18.5 40.5s-19 21.667 -32 29s-28.833 11 -47.5 11c-4.66699 0 -11 -0.333008 -19 -1s-16.333 -2.66699 -25 -6s-17.5 -8.33301 -26.5 -15s-16.833 -16.334 -23.5 -29.001l-125 6v390h439v-118h-314v-154z" />
    <glyph glyph-name="six" unicode="6" horiz-adv-x="545" 
d="M367 530c-2 20 -9.66602 36.332 -22.999 48.999s-33 19 -59 19c-22.667 0 -41.334 -5.83301 -56.001 -17.5s-26.334 -27 -35.001 -46s-14.834 -40.167 -18.501 -63.5s-6.16699 -46.333 -7.5 -69l2 -2c4.66699 6.66699 10.5 13.5 17.5 20.5s15.833 13.333 26.5 19
s23.167 10.334 37.5 14.001s31.5 5.5 51.5 5.5c36.667 0 68.667 -6.5 96 -19.5s50 -29.833 68 -50.5s31.333 -44 40 -70s13 -52.333 13 -79c0 -38.667 -5.66699 -74 -17 -106s-27.166 -59.333 -47.499 -82s-44.833 -40.167 -73.5 -52.5s-60 -18.5 -94 -18.5
c-54 0 -97.667 10.333 -131 31s-59.333 47.667 -78 81s-31.334 71.5 -38.001 114.5s-10 86.5 -10 130.5c0 22.667 0.833008 47.5 2.5 74.5s5.5 54.333 11.5 82s14.667 54.334 26 80.001s26.833 48.667 46.5 69s43.834 36.5 72.501 48.5s63.667 18 105 18
c7.33301 0 17.333 -0.833008 30 -2.5s26 -4.16699 40 -7.5s27.833 -8 41.5 -14s24.834 -13.333 33.501 -22c10 -9.33301 18.333 -18.166 25 -26.499s12.5 -17.333 17.5 -27s9.33301 -20.834 13 -33.501s7.16699 -28.334 10.5 -47.001h-139zM380.001 227.999
c0 22.667 -3.33301 41.502 -10 56.502s-15 27.167 -25 36.5s-21 16 -33 20s-23.333 6 -34 6c-13.333 0 -26.333 -2.16699 -39 -6.5s-24 -11.333 -34 -21s-18.167 -22.334 -24.5 -38.001s-9.5 -34.5 -9.5 -56.5c0 -38.667 10 -70.334 30 -95.001s47 -37 81 -37
c12.667 0 25 2.5 37 7.5s22.5 13 31.5 24s16.167 25 21.5 42s8 37.5 8 61.5z" />
    <glyph glyph-name="seven" unicode="7" horiz-adv-x="548" 
d="M528 590l-42.5 -90.5l-63 -134l-75 -169.5c-26.333 -62 -52.5 -127.333 -78.5 -196h-144l80 189l74.5 167l60.5 132.5c17.333 37.667 30 66.167 38 85.5h-353l3 124h500v-108z" />
    <glyph glyph-name="eight" unicode="8" horiz-adv-x="554" 
d="M279 422c28 0 49.502 8.33105 64.502 24.998s22.5 37.667 22.5 63c0 27.333 -8 48.833 -24 64.5s-35.333 23.5 -58 23.5c-32 0 -56 -8.16699 -72 -24.5s-24 -37.5 -24 -63.5c0 -10.667 2 -21.167 6 -31.5s9.66699 -19.666 17 -27.999s16.666 -15.166 27.999 -20.499
s24.666 -8 39.999 -8zM524.002 210.998c0 -22.667 -4 -47.332 -12 -73.999s-21.5 -51.5 -40.5 -74.5s-44.333 -42.333 -76 -58s-70.834 -23.5 -117.501 -23.5c-46 0 -84.667 6.66699 -116 20s-56.666 30.5 -75.999 51.5s-33.166 44.333 -41.499 70s-12.5 50.5 -12.5 74.5
c0 8.66699 0.5 20.667 1.5 36s5 31.5 12 48.5s17.667 34 32 51s35.166 31.833 62.499 44.5c-28 14 -49.333 32.333 -64 55s-22 50.667 -22 84c0 30 5.66699 57 17 81s27 44.333 47 61s43.333 29.5 70 38.5s55.667 13.5 87 13.5c36.667 0 69 -5 97 -15s51.5 -23.5 70.5 -40.5
s33.333 -36.667 43 -59s14.5 -45.833 14.5 -70.5c0 -30.667 -6.5 -58.334 -19.5 -83.001s-33.833 -44.667 -62.5 -60c16.667 -8.66699 31.667 -18.167 45 -28.5s24.5 -22.166 33.5 -35.499s15.833 -28.833 20.5 -46.5s7 -37.834 7 -60.501zM380.002 205
c0 12.667 -1.83398 25.5 -5.50098 38.5s-9.5 24.833 -17.5 35.5s-18.667 19.5 -32 26.5s-29.666 10.5 -48.999 10.5c-12.667 0 -25 -2.16699 -37 -6.5s-22.667 -11 -32 -20s-16.833 -20.333 -22.5 -34s-8.5 -30.167 -8.5 -49.5c0 -34 9.16699 -61.333 27.5 -82
s43.5 -31 75.5 -31c18 0 33.5 3.5 46.5 10.5s23.5 16 31.5 27s13.833 23.167 17.5 36.5s5.5 26 5.5 38z" />
    <glyph glyph-name="nine" unicode="9" horiz-adv-x="566" 
d="M170 475c0 -26.667 2.99805 -48.499 8.99805 -65.499s13.833 -30.167 23.5 -39.5s20.834 -15.833 33.501 -19.5s25.667 -5.5 39 -5.5c12 0 24.167 2.33301 36.5 7s23.5 11.667 33.5 21s18 21.5 24 36.5s9 33.167 9 54.5c0 40.667 -8.83301 72.667 -26.5 96
s-44.5 35 -80.5 35c-9.33301 0 -19.666 -1.5 -30.999 -4.5s-22.333 -8.83301 -33 -17.5s-19.5 -20.834 -26.5 -36.501s-10.5 -36.167 -10.5 -61.5zM182.998 164.001l-0.000976562 -0.995117c4 -24.667 13.333 -42.5 28 -53.5s32.667 -16.5 54 -16.5
c14.667 0 28.834 3.33301 42.501 10s26 17.667 37 33s20 35.666 27 60.999s10.5 56.666 10.5 93.999l-2 2c-16 -24 -36.5 -40 -61.5 -48s-49.5 -12 -73.5 -12c-34 0 -64.333 6 -91 18s-49.167 28.167 -67.5 48.5s-32.333 43.833 -42 70.5s-14.5 55 -14.5 85
c0 43.333 6.16699 81 18.5 113s29.166 58.5 50.499 79.5s46.833 36.667 76.5 47s61.834 15.5 96.501 15.5c41.333 0 76 -6.66699 104 -20s51.333 -30.833 70 -52.5s33.167 -45.834 43.5 -72.501s17.833 -53.5 22.5 -80.5s7.5 -52.833 8.5 -77.5s1.5 -45.334 1.5 -62.001
c0 -68.667 -7.5 -126.334 -22.5 -173.001s-34.5 -84.167 -58.5 -112.5s-51.5 -48.5 -82.5 -60.5s-62.5 -18 -94.5 -18c-30 0 -57.833 4.16699 -83.5 12.5s-48.167 20.5 -67.5 36.5s-35 35.333 -47 58s-19.333 48 -22 76h139z" />
    <glyph glyph-name="A" unicode="A" horiz-adv-x="807" 
d="M1 0l324 713h158l319 -713h-147l-75 158h-361l-75 -158h-143zM406 579l-120 -276h237l-116 276h-1z" />
    <glyph glyph-name="B" unicode="B" horiz-adv-x="704" 
d="M226 122l168 -0.000976562c15.333 0 30 1.5 44 4.5s26.333 8 37 15s19.167 16.5 25.5 28.5s9.5 27.333 9.5 46c0 36.667 -10.333 62.834 -31 78.501s-48 23.5 -82 23.5h-171v-196zM69 713.999l336 0.000976562c34 0 65 -3 93 -9s52 -15.833 72 -29.5
s35.5 -31.834 46.5 -54.501s16.5 -50.667 16.5 -84c0 -35.333 -8.33301 -65.166 -25 -89.499s-40.667 -44.166 -72 -59.499c44 -12.667 76.833 -34.834 98.5 -66.501s32.5 -69.834 32.5 -114.501c0 -36 -7 -67.167 -21 -93.5s-32.833 -47.833 -56.5 -64.5
s-50.667 -29 -81 -37s-61.5 -12 -93.5 -12h-346v714zM226 425l159 -0.000976562c28 0 51 6.66699 69 20s27 35 27 65c0 16.667 -3 30.334 -9 41.001s-14 19 -24 25s-21.5 10.167 -34.5 12.5s-26.5 3.5 -40.5 3.5h-147v-167z" />
    <glyph glyph-name="C" unicode="C" 
d="M713 191c-15.333 -28.667 -34.001 -54.832 -56.001 -78.499s-46.667 -44 -74 -61s-57.166 -30.167 -89.499 -39.5s-65.833 -14 -100.5 -14c-50 0 -97 9.5 -141 28.5s-82.333 44.833 -115 77.5s-58.5 71 -77.5 115s-28.5 91 -28.5 141c0 49.333 9.5 96 28.5 140
s44.833 82.5 77.5 115.5s71 59 115 78s91 28.5 141 28.5c34 0 66.667 -4.5 98 -13.5s60.5 -21.667 87.5 -38s51.333 -35.833 73 -58.5s40.167 -47.667 55.5 -75l-37 -19.5l-27 -14l-29 -14.5l-41 -20c-17.333 30.667 -42 55.5 -74 74.5s-67.333 28.5 -106 28.5
c-29.333 0 -56.833 -5.66699 -82.5 -17s-48.167 -26.5 -67.5 -45.5s-34.5 -41.5 -45.5 -67.5s-16.5 -53.333 -16.5 -82c0 -29.333 5.5 -56.833 16.5 -82.5s26.167 -48.167 45.5 -67.5s41.833 -34.5 67.5 -45.5s53.167 -16.5 82.5 -16.5c40 0 76.5 10.167 109.5 30.5
s58.5 47.166 76.5 80.499l40.5 -21l28.5 -15l27 -14c9.33301 -4.66699 22 -10.667 38 -18z" />
    <glyph glyph-name="D" unicode="D" 
d="M69 714h308c46 0 88.833 -7.33301 128.5 -22s74 -36.667 103 -66s51.667 -66 68 -110s24.5 -95.667 24.5 -155c0 -52 -6.66699 -100 -20 -144s-33.5 -82 -60.5 -114s-60.667 -57.167 -101 -75.5s-87.833 -27.5 -142.5 -27.5h-308v714zM226 132l140 0.000976562
c22.667 0 44.667 3.66699 66 11s40.333 19.5 57 36.5s30 39.167 40 66.5s15 60.666 15 99.999c0 36 -3.5 68.5 -10.5 97.5s-18.5 53.833 -34.5 74.5s-37.167 36.5 -63.5 47.5s-58.833 16.5 -97.5 16.5h-112v-450z" />
    <glyph glyph-name="E" unicode="E" horiz-adv-x="648" 
d="M203 285v0v-152h403v-132h-555v716h521v-132h-369v-161h326v-139h-326v0z" />
    <glyph glyph-name="F" unicode="F" horiz-adv-x="593" 
d="M203 133v-133l-152 1v716h521v-132h-369v-161h326v-139h-326v-152z" />
    <glyph glyph-name="G" unicode="G" horiz-adv-x="759" 
d="M745 357c0 -6.66699 -0.999023 -17.8379 -2.99902 -33.5049s-4.66699 -32.5 -8 -50.5s-7.5 -35.667 -12.5 -53s-10.833 -30.666 -17.5 -39.999c-15.333 -28.667 -34.333 -54.834 -57 -78.501s-48 -43.834 -76 -60.501s-58.167 -29.667 -90.5 -39s-65.833 -14 -100.5 -14
c-50.667 0 -98.334 9.66699 -143.001 29s-83.834 45.833 -117.501 79.5s-60.167 72.834 -79.5 117.501s-29 92.667 -29 144c0 50.667 9.66699 98.334 29 143.001s45.833 83.834 79.5 117.501s72.834 60.167 117.501 79.5s92.334 29 143.001 29c34.667 0 68 -4.66699 100 -14
s61.833 -22.166 89.5 -38.499s52.834 -36 75.501 -59s42 -48.5 58 -76.5c-16 -8 -28.833 -14.667 -38.5 -20s-19 -10.166 -28 -14.499l-29.5 -14.5l-42 -21c-18.667 31.333 -44.334 56.666 -77.001 75.999s-68.667 29 -108 29c-30 0 -58.167 -5.66699 -84.5 -17
s-49.166 -26.666 -68.499 -45.999s-34.666 -42.166 -45.999 -68.499s-17 -54.5 -17 -84.5s5.66699 -58.167 17 -84.5s26.666 -49.333 45.999 -69s42.166 -35 68.499 -46s54.5 -16.5 84.5 -16.5c40 0 76.667 10 110 30s59.666 46 78.999 78l-14 0.5
c-9.33301 0.333008 -21 0.333008 -35 0s-29.167 -0.5 -45.5 -0.5s-31.5 -0.166992 -45.5 -0.5s-25.667 -0.5 -35 -0.5s-14 0.333008 -14 1v108h82.5h92c31.667 0 63.667 -0.166992 96 -0.5s63.833 -0.5 94.5 -0.5z" />
    <glyph glyph-name="H" unicode="H" 
d="M539 306h-331v-304h-153v716h153v-259h331v257h154v-714h-154v304v0z" />
    <glyph glyph-name="I" unicode="I" horiz-adv-x="295" 
d="M69 714h157v-714h-157v714z" />
    <glyph glyph-name="J" unicode="J" horiz-adv-x="556" 
d="M487 225c0 -15.333 -1 -32.0029 -3 -50.0029s-5.83301 -36 -11.5 -54s-13.834 -35.167 -24.501 -51.5s-24.834 -31 -42.501 -44s-39.334 -23.333 -65.001 -31s-56.167 -11.5 -91.5 -11.5c-39.333 0 -77.166 7.5 -113.499 22.5s-65.166 38.833 -86.499 71.5
c-11.333 16.667 -20 35.5 -26 56.5s-9 44.5 -9 70.5v22h145v-22c0 -12 0.833008 -23 2.5 -33s5.16699 -18.667 10.5 -26c6 -9.33301 14.833 -16.666 26.5 -21.999s27.834 -8 48.501 -8s36.667 3.66699 48 11s19.5 16.833 24.5 28.5s8 24.334 9 38.001s1.5 26.834 1.5 39.501
v482h157v-489z" />
    <glyph glyph-name="K" unicode="K" horiz-adv-x="722" 
d="M698 0h-216l-279 263v0v-263h-160v715h160v-263v0l279 263h195l-375 -350l396 -365v0z" />
    <glyph glyph-name="L" unicode="L" horiz-adv-x="593" 
d="M54 5v712h154v-580h366v-132h-520v0z" />
    <glyph glyph-name="M" unicode="M" horiz-adv-x="907" 
d="M86 714h204l163 -495l164 495h207v-714h-133v506h-2l-175 -506h-121l-175 501h-2v-501h-130v714z" />
    <glyph glyph-name="N" unicode="N" 
d="M179 522v-523h-124v717h124h56l319 -446v446h133v-717h-133l-375 523v0z" />
    <glyph glyph-name="O" unicode="O" horiz-adv-x="778" 
d="M757 360c0 -51.333 -9.83301 -99.333 -29.5 -144s-46.167 -83.667 -79.5 -117s-72.5 -59.666 -117.5 -78.999s-92.833 -29 -143.5 -29c-51.333 0 -99.333 9.66699 -144 29s-83.667 45.666 -117 78.999s-59.666 72.333 -78.999 117s-29 92.667 -29 144
s9.66699 99.5 29 144.5s45.666 84.167 78.999 117.5s72.333 59.666 117 78.999s92.667 29 144 29c50.667 0 98.5 -9.66699 143.5 -29s84.167 -45.666 117.5 -78.999s59.833 -72.5 79.5 -117.5s29.5 -93.167 29.5 -144.5zM387 579c-30 0 -58.167 -5.83301 -84.5 -17.5
s-49.333 -27.5 -69 -47.5s-35.334 -43.167 -47.001 -69.5s-17.5 -54.5 -17.5 -84.5s5.83301 -58.167 17.5 -84.5s27.334 -49.333 47.001 -69s42.667 -35.334 69 -47.001s54.5 -17.5 84.5 -17.5s58 5.83301 84 17.5s48.833 27.334 68.5 47.001s35.167 42.667 46.5 69
s17 54.5 17 84.5s-5.66699 58.167 -17 84.5s-26.833 49.5 -46.5 69.5s-42.5 35.833 -68.5 47.5s-54 17.5 -84 17.5z" />
    <glyph glyph-name="P" unicode="P" horiz-adv-x="667" 
d="M69 714l322 -0.000976562c44.667 0 82.667 -6.5 114 -19.5s56.833 -30.167 76.5 -51.5s34 -45.833 43 -73.5s13.5 -55.834 13.5 -84.501c0 -29.333 -4.5 -57.666 -13.5 -84.999s-23.333 -51.666 -43 -72.999s-45.167 -38.5 -76.5 -51.5s-69.333 -19.5 -114 -19.5h-165
v-256h-157v714zM226 377.999l122 -0.00195312c18 0 35.333 1.33301 52 4s31.334 7.83398 44.001 15.501s22.834 18.5 30.501 32.5s11.5 32.333 11.5 55s-3.83301 41 -11.5 55s-17.834 24.833 -30.501 32.5s-27.334 12.834 -44.001 15.501s-34 4 -52 4h-122v-214z" />
    <glyph glyph-name="Q" unicode="Q" horiz-adv-x="778" 
d="M749 15h-264c-32 -10 -65.667 -15 -101 -15c-50 0 -97 9.5 -141 28.5s-82.5 45 -115.5 78s-59 71.5 -78 115.5s-28.5 91 -28.5 141c0 50.667 9.5 98.167 28.5 142.5s45 83 78 116s71.5 59 115.5 78s91 28.5 141 28.5c50.667 0 98.167 -9.5 142.5 -28.5s83 -45 116 -78
s59 -71.667 78 -116s28.5 -91.833 28.5 -142.5c0 -44 -7.5 -85.5 -22.5 -124.5s-35.5 -74.5 -61.5 -106.5h84v-117zM384 576c-29.333 0 -57 -5.5 -83 -16.5s-48.667 -26.167 -68 -45.5s-34.666 -41.833 -45.999 -67.5s-17 -53.5 -17 -83.5
c0 -29.333 5.66699 -56.833 17 -82.5s26.666 -48 45.999 -67s42 -34 68 -45s53.667 -16.5 83 -16.5c30 0 57.833 5.5 83.5 16.5s48.167 26 67.5 45s34.5 41.333 45.5 67s16.5 53.167 16.5 82.5c0 30 -5.5 57.833 -16.5 83.5s-26.167 48.167 -45.5 67.5
s-41.833 34.5 -67.5 45.5s-53.5 16.5 -83.5 16.5z" />
    <glyph glyph-name="R" unicode="R" horiz-adv-x="722" 
d="M470 264l6 0.00195312l185 -265h-177l-180 257h-77v-257h-158v715h322c44.667 0 82.834 -6.5 114.501 -19.5s57.5 -30.167 77.5 -51.5s34.5 -45.833 43.5 -73.5s13.5 -55.834 13.5 -84.501c0 -24 -3.33301 -47.833 -10 -71.5s-16.834 -45.5 -30.501 -65.5
s-31.167 -37.333 -52.5 -52s-47 -25.334 -77 -32.001zM349 592.002h-122v-215h122c18.667 0 36.334 1.33301 53.001 4s31.167 8 43.5 16s22.166 19 29.499 33s11 32.333 11 55c0 23.333 -3.66699 42 -11 56s-17.166 24.833 -29.499 32.5s-26.833 12.667 -43.5 15
s-34.334 3.5 -53.001 3.5z" />
    <glyph glyph-name="S" unicode="S" horiz-adv-x="649" 
d="M176 237c0 -24 4.33398 -44.334 13.001 -61.001s20.167 -30.167 34.5 -40.5s31 -18 50 -23s39.167 -7.5 60.5 -7.5c14 0 29 1.16699 45 3.5s31 6.83301 45 13.5s25.667 15.834 35 27.501s14 26.5 14 44.5c0 19.333 -6.16699 35 -18.5 47s-28.5 22.167 -48.5 30.5
s-42.667 15.333 -68 21s-51 12.167 -77 19.5c-26.667 6.66699 -52.667 14.834 -78 24.501s-48 22.167 -68 37.5s-36.167 34.333 -48.5 57s-18.5 50.667 -18.5 84c0 36.667 7.83301 68.5 23.5 95.5s36.167 49.5 61.5 67.5s54 31.333 86 40s64 13 96 13
c37.333 0 73.166 -4.16699 107.499 -12.5s64.833 -21.833 91.5 -40.5s47.834 -42.5 63.501 -71.5s23.5 -64.167 23.5 -105.5h-152c-1.33301 21.333 -5.83301 39 -13.5 53s-17.834 25 -30.501 33s-27.334 13.667 -44.001 17s-34.334 5 -53.001 5
c-12.667 0 -25.334 -1.33301 -38.001 -4s-24.167 -7.33398 -34.5 -14.001s-18.833 -15.167 -25.5 -25.5s-10 -22.833 -10 -37.5c0 -14 2.66699 -25.333 8 -34s15.833 -16.5 31.5 -23.5s37.334 -14.333 65.001 -22s63.834 -17.167 108.501 -28.5
c8.66699 -2 20 -4.83301 34 -8.5s28.833 -8.66699 44.5 -15s31.334 -14.5 47.001 -24.5s30 -22.333 43 -37s23.5 -32.167 31.5 -52.5s12 -43.833 12 -70.5c0 -32.667 -6.33301 -63 -19 -91s-31.5 -52.167 -56.5 -72.5s-56 -36.333 -93 -48s-79.833 -17.5 -128.5 -17.5
c-39.333 0 -77.5 5 -114.5 15s-69.5 25.333 -97.5 46s-50.5 47 -67.5 79s-25.167 70 -24.5 114h152z" />
    <glyph glyph-name="T" unicode="T" horiz-adv-x="653" 
d="M250 582l-227 -1v132h609v-132l-225 1v-582h-157v582z" />
    <glyph glyph-name="U" unicode="U" 
d="M675 270c0 -96.667 -27 -168.665 -81 -215.998s-128.667 -71 -224 -71c-96.667 0 -171.5 23.5 -224.5 70.5s-79.5 119.167 -79.5 216.5v444h157v-444c0 -19.333 1.66699 -38.333 5 -57s10.333 -35.334 21 -50.001s25.5 -26.334 44.5 -35.001s44.5 -13 76.5 -13
c56 0 94.667 12.5 116 37.5s32 64.167 32 117.5v444h157v-444z" />
    <glyph glyph-name="V" unicode="V" horiz-adv-x="630" 
d="M401 0h-177l-232 714h162l159 -502h2l161 502h162z" />
    <glyph glyph-name="W" unicode="W" horiz-adv-x="944" 
d="M749 0h-156l-121 486h-2l-119 -486h-159l-189 714h157l101 -488l14 2l124 486h147l122 -492l14 -1l105 493h154z" />
    <glyph glyph-name="X" unicode="X" horiz-adv-x="667" 
d="M244 374l-230 340h182l140 -228l145 228h172l-229 -341l249 -373h-187l-150 245l-165 -245h-177z" />
    <glyph glyph-name="Y" unicode="Y" horiz-adv-x="667" 
d="M254 278l-263 436h177l167 -282l166 282h175l-265 -440v-274h-157v278z" />
    <glyph glyph-name="Z" unicode="Z" horiz-adv-x="648" 
d="M23 124l383 458h-353v132h562v-124l-383 -458h393v-132h-602v124z" />
    <glyph glyph-name="a" unicode="a" horiz-adv-x="807" 
d="M325 713h158l319 -713h-147l-75 158h-361l-75 -158h-143zM286 303h237l-116 276h-1z" />
    <glyph glyph-name="b" unicode="b" horiz-adv-x="695" 
d="M210 122l168 -0.000976562c15.333 0 30 1.5 44 4.5s26.333 8 37 15s19.167 16.5 25.5 28.5s9.5 27.333 9.5 46c0 36.667 -10.333 62.834 -31 78.501s-48 23.5 -82 23.5h-171v-196zM53 713.999l336 0.000976562c34 0 65 -3 93 -9s52 -15.833 72 -29.5
s35.5 -31.834 46.5 -54.501s16.5 -50.667 16.5 -84c0 -35.333 -8.33301 -65.166 -25 -89.499s-40.667 -44.166 -72 -59.499c44 -12.667 76.833 -34.834 98.5 -66.501s32.5 -69.834 32.5 -114.501c0 -36 -7 -67.167 -21 -93.5s-32.833 -47.833 -56.5 -64.5
s-50.667 -29 -81 -37s-61.5 -12 -93.5 -12h-346v714zM210 425l159 -0.000976562c28 0 51 6.66699 69 20s27 35 27 65c0 16.667 -3 30.334 -9 41.001s-14 19 -24 25s-21.5 10.167 -34.5 12.5s-26.5 3.5 -40.5 3.5h-147v-167z" />
    <glyph glyph-name="c" unicode="c" 
d="M713 191c-15.333 -28.667 -34.001 -54.832 -56.001 -78.499s-46.667 -44 -74 -61s-57.166 -30.167 -89.499 -39.5s-65.833 -14 -100.5 -14c-50 0 -97 9.5 -141 28.5s-82.333 44.833 -115 77.5s-58.5 71 -77.5 115s-28.5 91 -28.5 141c0 49.333 9.5 96 28.5 140
s44.833 82.5 77.5 115.5s71 59 115 78s91 28.5 141 28.5c34 0 66.667 -4.5 98 -13.5s60.5 -21.667 87.5 -38s51.333 -35.833 73 -58.5s40.167 -47.667 55.5 -75l-37 -19.5l-27 -14l-29 -14.5l-41 -20c-17.333 30.667 -42 55.5 -74 74.5s-67.333 28.5 -106 28.5
c-29.333 0 -56.833 -5.66699 -82.5 -17s-48.167 -26.5 -67.5 -45.5s-34.5 -41.5 -45.5 -67.5s-16.5 -53.333 -16.5 -82c0 -29.333 5.5 -56.833 16.5 -82.5s26.167 -48.167 45.5 -67.5s41.833 -34.5 67.5 -45.5s53.167 -16.5 82.5 -16.5c40 0 76.5 10.167 109.5 30.5
s58.5 47.166 76.5 80.499l40.5 -21l28.5 -15l27 -14c9.33301 -4.66699 22 -10.667 38 -18z" />
    <glyph glyph-name="d" unicode="d" horiz-adv-x="747" 
d="M69 714h308c46 0 88.833 -7.33301 128.5 -22s74 -36.667 103 -66s51.667 -66 68 -110s24.5 -95.667 24.5 -155c0 -52 -6.66699 -100 -20 -144s-33.5 -82 -60.5 -114s-60.667 -57.167 -101 -75.5s-87.833 -27.5 -142.5 -27.5h-308v714zM226 132l140 0.000976562
c22.667 0 44.667 3.66699 66 11s40.333 19.5 57 36.5s30 39.167 40 66.5s15 60.666 15 99.999c0 36 -3.5 68.5 -10.5 97.5s-18.5 53.833 -34.5 74.5s-37.167 36.5 -63.5 47.5s-58.833 16.5 -97.5 16.5h-112v-450z" />
    <glyph glyph-name="e" unicode="e" horiz-adv-x="650" 
d="M203 133h403v-132h-555v716h521v-132h-369v-161h326v-139h-326v-152z" />
    <glyph glyph-name="f" unicode="f" horiz-adv-x="613" 
d="M203 133v-133l-152 1v716h521v-132h-369v-161h326v-139h-326v-152z" />
    <glyph glyph-name="g" unicode="g" horiz-adv-x="779" 
d="M745 357c0 -6.66699 -0.999023 -17.8379 -2.99902 -33.5049s-4.66699 -32.5 -8 -50.5s-7.5 -35.667 -12.5 -53s-10.833 -30.666 -17.5 -39.999c-15.333 -28.667 -34.333 -54.834 -57 -78.501s-48 -43.834 -76 -60.501s-58.167 -29.667 -90.5 -39s-65.833 -14 -100.5 -14
c-50.667 0 -98.334 9.66699 -143.001 29s-83.834 45.833 -117.501 79.5s-60.167 72.834 -79.5 117.501s-29 92.667 -29 144c0 50.667 9.66699 98.334 29 143.001s45.833 83.834 79.5 117.501s72.834 60.167 117.501 79.5s92.334 29 143.001 29c34.667 0 68 -4.66699 100 -14
s61.833 -22.166 89.5 -38.499s52.834 -36 75.501 -59s42 -48.5 58 -76.5c-16 -8 -28.833 -14.667 -38.5 -20s-19 -10.166 -28 -14.499l-29.5 -14.5l-42 -21c-18.667 31.333 -44.334 56.666 -77.001 75.999s-68.667 29 -108 29c-30 0 -58.167 -5.66699 -84.5 -17
s-49.166 -26.666 -68.499 -45.999s-34.666 -42.166 -45.999 -68.499s-17 -54.5 -17 -84.5s5.66699 -58.167 17 -84.5s26.666 -49.333 45.999 -69s42.166 -35 68.499 -46s54.5 -16.5 84.5 -16.5c40 0 76.667 10 110 30s59.666 46 78.999 78l-14 0.5
c-9.33301 0.333008 -21 0.333008 -35 0s-29.167 -0.5 -45.5 -0.5s-31.5 -0.166992 -45.5 -0.5s-25.667 -0.5 -35 -0.5s-14 0.333008 -14 1v108h82.5h92c31.667 0 63.667 -0.166992 96 -0.5s63.833 -0.5 94.5 -0.5z" />
    <glyph glyph-name="h" unicode="h" horiz-adv-x="749" 
d="M539 306h-331v-304h-153v716h153v-259h331v257h154v-714h-154v304z" />
    <glyph glyph-name="i" unicode="i" horiz-adv-x="288" 
d="M69 714h157v-714h-157v714z" />
    <glyph glyph-name="j" unicode="j" horiz-adv-x="523" 
d="M487 225c0 -15.333 -1 -32.0029 -3 -50.0029s-5.83301 -36 -11.5 -54s-13.834 -35.167 -24.501 -51.5s-24.834 -31 -42.501 -44s-39.334 -23.333 -65.001 -31s-56.167 -11.5 -91.5 -11.5c-39.333 0 -77.166 7.5 -113.499 22.5s-65.166 38.833 -86.499 71.5
c-11.333 16.667 -20 35.5 -26 56.5s-9 44.5 -9 70.5v22h145v-22c0 -12 0.833008 -23 2.5 -33s5.16699 -18.667 10.5 -26c6 -9.33301 14.833 -16.666 26.5 -21.999s27.834 -8 48.501 -8s36.667 3.66699 48 11s19.5 16.833 24.5 28.5s8 24.334 9 38.001s1.5 26.834 1.5 39.501
v482h157v-489z" />
    <glyph glyph-name="k" unicode="k" horiz-adv-x="725" 
d="M698 0h-216l-279 263v0v-263h-160v715h160v-263v0l279 263h195l-375 -350z" />
    <glyph glyph-name="l" unicode="l" horiz-adv-x="619" 
d="M54 5v712h154v-580h366v-132h-520z" />
    <glyph glyph-name="m" unicode="m" horiz-adv-x="896" 
d="M86 714h204l163 -495l164 495h207v-714h-133v506h-2l-175 -506h-121l-175 501h-2v-501h-130v714z" />
    <glyph glyph-name="n" unicode="n" horiz-adv-x="749" 
d="M179 522v-523h-124v717h124h56l319 -446v446h133v-717h-133z" />
    <glyph glyph-name="o" unicode="o" horiz-adv-x="779" 
d="M757 360c0 -51.333 -9.83301 -99.333 -29.5 -144s-46.167 -83.667 -79.5 -117s-72.5 -59.666 -117.5 -78.999s-92.833 -29 -143.5 -29c-51.333 0 -99.333 9.66699 -144 29s-83.667 45.666 -117 78.999s-59.666 72.333 -78.999 117s-29 92.667 -29 144
s9.66699 99.5 29 144.5s45.666 84.167 78.999 117.5s72.333 59.666 117 78.999s92.667 29 144 29c50.667 0 98.5 -9.66699 143.5 -29s84.167 -45.666 117.5 -78.999s59.833 -72.5 79.5 -117.5s29.5 -93.167 29.5 -144.5zM387 579c-30 0 -58.167 -5.83301 -84.5 -17.5
s-49.333 -27.5 -69 -47.5s-35.334 -43.167 -47.001 -69.5s-17.5 -54.5 -17.5 -84.5s5.83301 -58.167 17.5 -84.5s27.334 -49.333 47.001 -69s42.667 -35.334 69 -47.001s54.5 -17.5 84.5 -17.5s58 5.83301 84 17.5s48.833 27.334 68.5 47.001s35.167 42.667 46.5 69
s17 54.5 17 84.5s-5.66699 58.167 -17 84.5s-26.833 49.5 -46.5 69.5s-42.5 35.833 -68.5 47.5s-54 17.5 -84 17.5z" />
    <glyph glyph-name="p" unicode="p" horiz-adv-x="667" 
d="M69 714l322 -0.000976562c44.667 0 82.667 -6.5 114 -19.5s56.833 -30.167 76.5 -51.5s34 -45.833 43 -73.5s13.5 -55.834 13.5 -84.501c0 -29.333 -4.5 -57.666 -13.5 -84.999s-23.333 -51.666 -43 -72.999s-45.167 -38.5 -76.5 -51.5s-69.333 -19.5 -114 -19.5h-165
v-256h-157v714zM226 377.999l122 -0.00195312c18 0 35.333 1.33301 52 4s31.334 7.83398 44.001 15.501s22.834 18.5 30.501 32.5s11.5 32.333 11.5 55s-3.83301 41 -11.5 55s-17.834 24.833 -30.501 32.5s-27.334 12.834 -44.001 15.501s-34 4 -52 4h-122v-214z" />
    <glyph glyph-name="q" unicode="q" horiz-adv-x="781" 
d="M749 15h-264c-32 -10 -65.667 -15 -101 -15c-50 0 -97 9.5 -141 28.5s-82.5 45 -115.5 78s-59 71.5 -78 115.5s-28.5 91 -28.5 141c0 50.667 9.5 98.167 28.5 142.5s45 83 78 116s71.5 59 115.5 78s91 28.5 141 28.5c50.667 0 98.167 -9.5 142.5 -28.5s83 -45 116 -78
s59 -71.667 78 -116s28.5 -91.833 28.5 -142.5c0 -44 -7.5 -85.5 -22.5 -124.5s-35.5 -74.5 -61.5 -106.5h84v-117zM384 576c-29.333 0 -57 -5.5 -83 -16.5s-48.667 -26.167 -68 -45.5s-34.666 -41.833 -45.999 -67.5s-17 -53.5 -17 -83.5
c0 -29.333 5.66699 -56.833 17 -82.5s26.666 -48 45.999 -67s42 -34 68 -45s53.667 -16.5 83 -16.5c30 0 57.833 5.5 83.5 16.5s48.167 26 67.5 45s34.5 41.333 45.5 67s16.5 53.167 16.5 82.5c0 30 -5.5 57.833 -16.5 83.5s-26.167 48.167 -45.5 67.5
s-41.833 34.5 -67.5 45.5s-53.5 16.5 -83.5 16.5z" />
    <glyph glyph-name="r" unicode="r" horiz-adv-x="707" 
d="M470 264l6 0.00195312l185 -265h-177l-180 257h-77v-257h-158v715h322c44.667 0 82.834 -6.5 114.501 -19.5s57.5 -30.167 77.5 -51.5s34.5 -45.833 43.5 -73.5s13.5 -55.834 13.5 -84.501c0 -24 -3.33301 -47.833 -10 -71.5s-16.834 -45.5 -30.501 -65.5
s-31.167 -37.333 -52.5 -52s-47 -25.334 -77 -32.001zM349 592.002h-122v-215h122c18.667 0 36.334 1.33301 53.001 4s31.167 8 43.5 16s22.166 19 29.499 33s11 32.333 11 55c0 23.333 -3.66699 42 -11 56s-17.166 24.833 -29.499 32.5s-26.833 12.667 -43.5 15
s-34.334 3.5 -53.001 3.5z" />
    <glyph glyph-name="s" unicode="s" horiz-adv-x="648" 
d="M176 237c0 -24 4.33398 -44.334 13.001 -61.001s20.167 -30.167 34.5 -40.5s31 -18 50 -23s39.167 -7.5 60.5 -7.5c14 0 29 1.16699 45 3.5s31 6.83301 45 13.5s25.667 15.834 35 27.501s14 26.5 14 44.5c0 19.333 -6.16699 35 -18.5 47s-28.5 22.167 -48.5 30.5
s-42.667 15.333 -68 21s-51 12.167 -77 19.5c-26.667 6.66699 -52.667 14.834 -78 24.501s-48 22.167 -68 37.5s-36.167 34.333 -48.5 57s-18.5 50.667 -18.5 84c0 36.667 7.83301 68.5 23.5 95.5s36.167 49.5 61.5 67.5s54 31.333 86 40s64 13 96 13
c37.333 0 73.166 -4.16699 107.499 -12.5s64.833 -21.833 91.5 -40.5s47.834 -42.5 63.501 -71.5s23.5 -64.167 23.5 -105.5h-152c-1.33301 21.333 -5.83301 39 -13.5 53s-17.834 25 -30.501 33s-27.334 13.667 -44.001 17s-34.334 5 -53.001 5
c-12.667 0 -25.334 -1.33301 -38.001 -4s-24.167 -7.33398 -34.5 -14.001s-18.833 -15.167 -25.5 -25.5s-10 -22.833 -10 -37.5c0 -14 2.66699 -25.333 8 -34s15.833 -16.5 31.5 -23.5s37.334 -14.333 65.001 -22s63.834 -17.167 108.501 -28.5
c8.66699 -2 20 -4.83301 34 -8.5s28.833 -8.66699 44.5 -15s31.334 -14.5 47.001 -24.5s30 -22.333 43 -37s23.5 -32.167 31.5 -52.5s12 -43.833 12 -70.5c0 -32.667 -6.33301 -63 -19 -91s-31.5 -52.167 -56.5 -72.5s-56 -36.333 -93 -48s-79.833 -17.5 -128.5 -17.5
c-39.333 0 -77.5 5 -114.5 15s-69.5 25.333 -97.5 46s-50.5 47 -67.5 79s-25.167 70 -24.5 114h152z" />
    <glyph glyph-name="t" unicode="t" horiz-adv-x="653" 
d="M250 582l-227 -1v132h609v-132l-225 1v-582h-157v582z" />
    <glyph glyph-name="u" unicode="u" horiz-adv-x="739" 
d="M675 270c0 -96.667 -27 -168.665 -81 -215.998s-128.667 -71 -224 -71c-96.667 0 -171.5 23.5 -224.5 70.5s-79.5 119.167 -79.5 216.5v444h157v-444c0 -19.333 1.66699 -38.333 5 -57s10.333 -35.334 21 -50.001s25.5 -26.334 44.5 -35.001s44.5 -13 76.5 -13
c56 0 94.667 12.5 116 37.5s32 64.167 32 117.5v444h157v-444z" />
    <glyph glyph-name="v" unicode="v" horiz-adv-x="629" 
d="M401 0h-177l-232 714h162l159 -502h2l161 502h162z" />
    <glyph glyph-name="w" unicode="w" horiz-adv-x="941" 
d="M749 0h-156l-121 486h-2l-119 -486h-159l-189 714h157l101 -488l14 2l124 486h147l122 -492l14 -1l105 493h154z" />
    <glyph glyph-name="x" unicode="x" horiz-adv-x="669" 
d="M244 374l-230 340h182l140 -228l145 228h172l-229 -341l249 -373h-187l-150 245l-165 -245h-177z" />
    <glyph glyph-name="y" unicode="y" horiz-adv-x="669" 
d="M254 278l-263 436h177l167 -282l166 282h175l-265 -440v-274h-157v278z" />
    <glyph glyph-name="z" unicode="z" horiz-adv-x="648" 
d="M23 124l383 458h-353v132h562v-124l-383 -458h393v-132h-602v124z" />
    <glyph glyph-name="copyright" unicode="&#xa9;" horiz-adv-x="800" 
d="M544 328l28.499 -15.4971l19 -10l18 -9.5l25.5 -13c-19.333 -40 -48.666 -72.667 -87.999 -98s-84.333 -38 -135 -38c-34 0 -66 6.66699 -96 20s-56.333 31.5 -79 54.5s-40.667 49.833 -54 80.5s-20 63.667 -20 99c0 34.667 6.66699 67.5 20 98.5s31.333 58 54 81
s49 41.167 79 54.5s62 20 96 20c48.667 0 92.667 -12 132 -36s69.666 -55.667 90.999 -95l-26.5 -13l-20 -9.5l-20.5 -10c-7.33301 -3.66699 -17 -8.83398 -29 -15.501c-13.333 21.333 -30.666 39 -51.999 53s-46.333 21 -75 21c-19.333 0 -37.833 -3.83301 -55.5 -11.5
s-33 -18.334 -46 -32.001s-23.333 -29.5 -31 -47.5s-11.5 -37.333 -11.5 -58s3.83301 -40 11.5 -58s18 -33.833 31 -47.5s28.333 -24.334 46 -32.001s36.167 -11.5 55.5 -11.5c28.667 0 54.5 7.16699 77.5 21.5s41.167 33.5 54.5 57.5zM398.999 79.0029
c44 0 85.333 8.33301 124 25s72.5 39.5 101.5 68.5s52 62.833 69 101.5s25.5 80 25.5 124s-8.5 85 -25.5 123s-40 71.333 -69 100s-62.833 51.167 -101.5 67.5s-80 24.5 -124 24.5s-85 -8.16699 -123 -24.5s-71.333 -38.833 -100 -67.5s-51.167 -62 -67.5 -100
s-24.5 -79 -24.5 -123s8.16699 -85.333 24.5 -124s38.833 -72.5 67.5 -101.5s62 -51.833 100 -68.5s79 -25 123 -25zM398.999 796.003c54.667 0 106.167 -10.5 154.5 -31.5s90.5 -49.5 126.5 -85.5s64.5 -78.167 85.5 -126.5s31.5 -99.833 31.5 -154.5
s-10.5 -106.167 -31.5 -154.5s-49.5 -90.5 -85.5 -126.5s-78.167 -64.5 -126.5 -85.5s-99.833 -31.5 -154.5 -31.5s-106.167 10.5 -154.5 31.5s-90.5 49.5 -126.5 85.5s-64.5 78.167 -85.5 126.5s-31.5 99.833 -31.5 154.5s10.5 106.167 31.5 154.5s49.5 90.5 85.5 126.5
s78.167 64.5 126.5 85.5s99.833 31.5 154.5 31.5z" />
    <glyph glyph-name="registered" unicode="&#xae;" horiz-adv-x="800" 
d="M392 409c12 0 23.333 0.830078 34 2.49707s20 5 28 10s14.333 12.167 19 21.5s7 21.333 7 36s-2.33301 26.334 -7 35.001s-11 15.334 -19 20.001s-17.333 7.83398 -28 9.50098s-22 2.5 -34 2.5h-78v-137h78zM473 337.997l118 -169.001h-113l-114 163h-50v-163h-100v455
h206c28 0 52 -4.16699 72 -12.5s36.167 -19.166 48.5 -32.499s21.5 -28.833 27.5 -46.5s9 -35.5 9 -53.5c0 -31.333 -8.5 -60.333 -25.5 -87s-44.5 -44.667 -82.5 -54h4zM403 81.9961c43.333 0 84.166 8.16699 122.499 24.5s71.666 38.833 99.999 67.5s50.666 62 66.999 100
s24.5 78.667 24.5 122c0 44 -8.16699 85 -24.5 123s-38.666 71.333 -66.999 100s-61.666 51.167 -99.999 67.5s-79.166 24.5 -122.499 24.5c-44 0 -85 -8.16699 -123 -24.5s-71.333 -38.833 -100 -67.5s-51.167 -62 -67.5 -100s-24.5 -79 -24.5 -123
c0 -43.333 8.16699 -84 24.5 -122s38.833 -71.333 67.5 -100s62 -51.167 100 -67.5s79 -24.5 123 -24.5zM403 789.996c54 0 105 -10.333 153 -31s89.667 -48.834 125 -84.501s63.333 -77.334 84 -125.001s31 -98.834 31 -153.501c0 -54 -10.333 -105 -31 -153
s-48.667 -89.667 -84 -125s-77 -63.333 -125 -84s-99 -31 -153 -31c-54.667 0 -105.834 10.333 -153.501 31s-89.334 48.667 -125.001 84s-63.834 77 -84.501 125s-31 99 -31 153c0 54.667 10.333 105.834 31 153.501s48.834 89.334 84.501 125.001
s77.334 63.834 125.001 84.501s98.834 31 153.501 31z" />
    <glyph glyph-name="trademark" unicode="&#x2122;" horiz-adv-x="1000" 
d="M398 634h-117v-332h-102v332h-117v80h336v-80zM451 714h118l94 -286l95 286h120v-413h-78v293h-1l-101 -293h-70l-101 289h-1v-289h-75v413z" />
    </font>
</defs>
</svg>
